<?xml version="1.0" encoding="UTF-8"?>
<svg xmlns="http://www.w3.org/2000/svg" xmlns:xlink="http://www.w3.org/1999/xlink" viewBox="0 0 64 64" width="64px" height="64px">
<g id="surface284260395">
<path style=" stroke:none;fill-rule:nonzero;fill:rgb(22.352941%,100%,7.843138%);fill-opacity:1;" d="M 57.898438 28.5 L 35.5 6.101562 C 34.601562 5.199219 33.300781 4.601562 32 4.601562 C 30.699219 4.601562 29.398438 5.101562 28.5 6.101562 L 6.101562 28.5 C 5.199219 29.398438 4.601562 30.699219 4.601562 32 C 4.601562 33.300781 5.101562 34.601562 6.101562 35.5 L 28.398438 57.800781 C 29.300781 58.699219 30.601562 59.300781 31.898438 59.300781 C 33.199219 59.300781 34.5 58.800781 35.398438 57.800781 L 57.699219 35.5 C 58.601562 34.601562 59.199219 33.300781 59.199219 32 C 59.199219 30.699219 58.800781 29.398438 57.898438 28.5 Z M 56.5 34.101562 L 34.101562 56.5 C 33 57.601562 31 57.601562 29.898438 56.5 L 7.5 34.101562 C 7 33.601562 6.699219 32.800781 6.699219 32 C 6.699219 31.199219 7 30.398438 7.601562 29.898438 L 23.601562 13.898438 L 30.101562 20.398438 L 30.101562 43 L 32.101562 43 L 32.101562 22.398438 L 42.898438 33.199219 L 44.300781 31.800781 L 24.898438 12.5 L 29.898438 7.5 C 30.398438 7 31.199219 6.699219 32 6.699219 C 32.800781 6.699219 33.601562 7 34.101562 7.601562 L 56.398438 29.898438 C 57 30.5 57.300781 31.199219 57.300781 32 C 57.300781 32.800781 57 33.601562 56.5 34.101562 Z M 56.5 34.101562 "/>
<path style=" stroke:none;fill-rule:nonzero;fill:rgb(59.215689%,100%,51.764709%);fill-opacity:1;" d="M 35 43 C 35 45.210938 33.210938 47 31 47 C 28.789062 47 27 45.210938 27 43 C 27 40.789062 28.789062 39 31 39 C 33.210938 39 35 40.789062 35 43 Z M 35 43 "/>
<path style=" stroke:none;fill-rule:nonzero;fill:rgb(59.215689%,100%,51.764709%);fill-opacity:1;" d="M 35 21 C 35 23.210938 33.210938 25 31 25 C 28.789062 25 27 23.210938 27 21 C 27 18.789062 28.789062 17 31 17 C 33.210938 17 35 18.789062 35 21 Z M 35 21 "/>
<path style=" stroke:none;fill-rule:nonzero;fill:rgb(59.215689%,100%,51.764709%);fill-opacity:1;" d="M 47 32 C 47 34.210938 45.210938 36 43 36 C 40.789062 36 39 34.210938 39 32 C 39 29.789062 40.789062 28 43 28 C 45.210938 28 47 29.789062 47 32 Z M 47 32 "/>
</g>
</svg>
